<svg width="50" height="50" viewBox="0 0 50 50" fill="none" xmlns="http://www.w3.org/2000/svg">
<circle cx="25" cy="25" r="25" fill="black" fill-opacity="0.35"/>
<path d="M12 24.9792C12 24.3807 12.2136 23.8067 12.5937 23.3835C12.9739 22.9603 13.4895 22.7225 14.0272 22.7225H30.0824L24.7577 16.7951C24.3996 16.3673 24.2046 15.8015 24.2139 15.2168C24.2232 14.6322 24.4359 14.0744 24.8073 13.661C25.1788 13.2475 25.6798 13.0107 26.205 13.0004C26.7302 12.99 27.2385 13.207 27.6227 13.6057L36.4071 23.3845C36.7868 23.8076 37 24.3812 37 24.9792C37 25.5772 36.7868 26.1507 36.4071 26.5739L27.6227 36.3527C27.2385 36.7513 26.7302 36.9683 26.205 36.958C25.6798 36.9477 25.1788 36.7108 24.8073 36.2974C24.4359 35.8839 24.2232 35.3261 24.2139 34.7415C24.2046 34.1569 24.3996 33.5911 24.7577 33.1633L30.0824 27.2358H14.0272C13.4895 27.2358 12.9739 26.9981 12.5937 26.5749C12.2136 26.1517 12 25.5777 12 24.9792Z" fill="white"/>
</svg>
