<svg width="50" height="50" viewBox="0 0 50 50" fill="none" xmlns="http://www.w3.org/2000/svg">
<circle cx="25" cy="25" r="25" fill="black" fill-opacity="0.1"/>
<path d="M10 25C10 24.3005 10.2563 23.6297 10.7125 23.1351C11.1687 22.6405 11.7874 22.3627 12.4326 22.3627H31.6988L25.3092 15.4353C24.8795 14.9353 24.6456 14.2741 24.6567 13.5908C24.6678 12.9076 24.9231 12.2557 25.3688 11.7725C25.8145 11.2893 26.4158 11.0125 27.046 11.0004C27.6762 10.9884 28.2861 11.242 28.7473 11.7078L39.2886 23.1363C39.7441 23.6308 40 24.3011 40 25C40 25.6989 39.7441 26.3692 39.2886 26.8637L28.7473 38.2922C28.2861 38.758 27.6762 39.0116 27.046 38.9996C26.4158 38.9875 25.8145 38.7107 25.3688 38.2275C24.9231 37.7443 24.6678 37.0924 24.6567 36.4092C24.6456 35.7259 24.8795 35.0647 25.3092 34.5647L31.6988 27.6373H12.4326C11.7874 27.6373 11.1687 27.3595 10.7125 26.8649C10.2563 26.3703 10 25.6995 10 25Z" fill="white"/>
</svg>
