<svg width="24" height="24" viewBox="0 0 59 79" fill="none" xmlns="http://www.w3.org/2000/svg">
<path d="M2.09936 77.8927C2.73294 78.2222 3.44431 78.373 4.1571 78.3288C4.8699 78.2847 5.55722 78.0472 6.14527 77.642L57.0619 42.392C57.5822 42.0316 58.0074 41.5504 58.3011 40.9897C58.5947 40.429 58.7481 39.8055 58.7481 39.1725C58.7481 38.5396 58.5947 37.916 58.3011 37.3553C58.0074 36.7946 57.5822 36.3135 57.0619 35.953L6.14527 0.70301C5.55832 0.293541 4.87022 0.0530727 4.15598 0.00782242C3.44175 -0.0374279 2.7288 0.114277 2.09486 0.446397C1.46092 0.778516 0.930334 1.2783 0.560939 1.89127C0.191543 2.50423 -0.00247989 3.20685 2.39301e-05 3.92251V74.4225C-9.3887e-05 75.1374 0.195477 75.8388 0.565541 76.4505C0.935604 77.0622 1.46604 77.5609 2.09936 77.8927ZM7.83336 11.3994L47.9518 39.1725L7.83336 66.9456V11.3994Z" fill="#000"/>
<path d="M2.09936 77.8927C2.73294 78.2222 3.44431 78.373 4.1571 78.3288C4.8699 78.2847 5.55722 78.0472 6.14527 77.642L57.0619 42.392C57.5822 42.0316 58.0074 41.5504 58.3011 40.9897C58.5947 40.429 58.7481 39.8055 58.7481 39.1725C58.7481 38.5396 58.5947 37.916 58.3011 37.3553C58.0074 36.7946 57.5822 36.3135 57.0619 35.953L6.14527 0.70301C5.55832 0.293541 4.87022 0.0530727 4.15598 0.00782242C3.44175 -0.0374279 2.7288 0.114277 2.09486 0.446397C1.46092 0.778516 0.930334 1.2783 0.560939 1.89127C0.191543 2.50423 -0.00247989 3.20685 2.39301e-05 3.92251V74.4225C-9.3887e-05 75.1374 0.195477 75.8388 0.565541 76.4505C0.935604 77.0622 1.46604 77.5609 2.09936 77.8927ZM7.83336 11.3994L47.9518 39.1725L7.83336 66.9456V11.3994Z" stroke="black"/>
</svg>
